<svg xmlns="http://www.w3.org/2000/svg" xmlns:xlink="http://www.w3.org/1999/xlink" width="500" zoomAndPan="magnify" viewBox="0 0 375 74.999997" height="100" preserveAspectRatio="xMidYMid meet" version="1.0"><defs><g/></defs><g fill="#000000" fill-opacity="1"><g transform="translate(10.377287, 59.999989)"><g><path d="M 38.078125 1.140625 L 18.953125 1.140625 C 14.316406 1.140625 10.882812 0.242188 8.65625 -1.546875 C 6.425781 -3.335938 5.3125 -6.128906 5.3125 -9.921875 L 5.3125 -36.5625 C 5.3125 -43.632812 9.859375 -47.171875 18.953125 -47.171875 L 36.5625 -47.171875 L 36.5625 -43.078125 L 18.953125 -43.078125 C 18.359375 -43.078125 17.578125 -43.019531 16.609375 -42.90625 C 15.640625 -42.800781 14.691406 -42.53125 13.765625 -42.09375 C 12.835938 -41.65625 12.046875 -40.992188 11.390625 -40.109375 C 10.742188 -39.222656 10.421875 -37.976562 10.421875 -36.375 L 10.421875 -10.171875 C 10.421875 -8.441406 10.734375 -7.113281 11.359375 -6.1875 C 11.992188 -5.257812 12.765625 -4.5625 13.671875 -4.09375 C 14.578125 -3.632812 15.515625 -3.363281 16.484375 -3.28125 C 17.453125 -3.195312 18.273438 -3.15625 18.953125 -3.15625 L 32.96875 -3.15625 L 32.96875 -21.859375 L 20.015625 -21.859375 L 20.015625 -25.765625 L 38.078125 -25.765625 Z M 38.078125 1.140625 "/></g></g></g><g fill="#000000" fill-opacity="1"><g transform="translate(52.373113, 59.999989)"><g><path d="M 37.203125 -42.8125 L 10.734375 -42.8125 L 10.734375 -25.828125 L 33.21875 -25.828125 L 33.21875 -21.71875 L 10.734375 -21.71875 L 10.734375 -3.15625 L 37.203125 -3.15625 L 37.203125 1.140625 L 5.8125 1.140625 L 5.8125 -47.109375 L 37.203125 -47.109375 Z M 37.203125 -42.8125 "/></g></g></g><g fill="#000000" fill-opacity="1"><g transform="translate(91.274499, 59.999989)"><g><path d="M 10.796875 1.140625 L 5.75 1.140625 L 5.75 -47.109375 L 10.796875 -47.109375 Z M 11.4375 -23.5625 L 30 -47.109375 L 36.5 -47.109375 L 17.4375 -23.625 L 38.78125 1.140625 L 32.34375 1.140625 Z M 11.4375 -23.5625 "/></g></g></g><g fill="#000000" fill-opacity="1"><g transform="translate(133.459766, 59.999989)"><g><path d="M 10.796875 1.140625 L 5.75 1.140625 L 5.75 -47.109375 L 10.796875 -47.109375 Z M 10.796875 1.140625 "/></g></g></g><g fill="#000000" fill-opacity="1"><g transform="translate(149.942345, 59.999989)"><g><path d="M 8.59375 -32.65625 C 8.59375 -31.132812 8.96875 -29.921875 9.71875 -29.015625 C 10.476562 -28.109375 11.515625 -27.40625 12.828125 -26.90625 C 14.046875 -26.394531 15.492188 -26.015625 17.171875 -25.765625 C 18.015625 -25.597656 18.859375 -25.453125 19.703125 -25.328125 C 20.546875 -25.203125 21.390625 -25.078125 22.234375 -24.953125 C 23.910156 -24.691406 25.582031 -24.382812 27.25 -24.03125 C 28.914062 -23.675781 30.390625 -23.140625 31.671875 -22.421875 C 32.953125 -21.703125 33.992188 -20.734375 34.796875 -19.515625 C 35.597656 -18.296875 36 -16.71875 36 -14.78125 L 36 -9.09375 C 36 -7.113281 35.585938 -5.46875 34.765625 -4.15625 C 33.941406 -2.851562 32.867188 -1.8125 31.546875 -1.03125 C 30.222656 -0.257812 28.726562 0.289062 27.0625 0.625 C 25.394531 0.96875 23.742188 1.140625 22.109375 1.140625 L 4.921875 1.140625 L 4.921875 -3.15625 L 22.046875 -3.15625 C 23.179688 -3.15625 24.285156 -3.226562 25.359375 -3.375 C 26.429688 -3.519531 27.378906 -3.820312 28.203125 -4.28125 C 29.023438 -4.75 29.675781 -5.40625 30.15625 -6.25 C 30.644531 -7.09375 30.890625 -8.1875 30.890625 -9.53125 L 30.890625 -14.53125 C 30.890625 -15.875 30.5 -16.9375 29.71875 -17.71875 C 28.9375 -18.5 27.894531 -19.117188 26.59375 -19.578125 C 25.957031 -19.785156 25.269531 -19.972656 24.53125 -20.140625 C 23.800781 -20.316406 23.035156 -20.46875 22.234375 -20.59375 C 21.390625 -20.71875 20.546875 -20.832031 19.703125 -20.9375 C 18.859375 -21.039062 18.015625 -21.15625 17.171875 -21.28125 C 15.453125 -21.53125 13.769531 -21.851562 12.125 -22.25 C 10.476562 -22.65625 9.015625 -23.269531 7.734375 -24.09375 C 6.453125 -24.914062 5.421875 -26 4.640625 -27.34375 C 3.859375 -28.695312 3.46875 -30.445312 3.46875 -32.59375 L 3.46875 -36.890625 C 3.46875 -38.816406 3.816406 -40.429688 4.515625 -41.734375 C 5.210938 -43.046875 6.148438 -44.09375 7.328125 -44.875 C 8.503906 -45.65625 9.867188 -46.203125 11.421875 -46.515625 C 12.984375 -46.828125 14.628906 -46.984375 16.359375 -46.984375 L 32.65625 -46.984375 L 32.65625 -42.6875 L 15.859375 -42.6875 C 13.835938 -42.6875 12.117188 -42.210938 10.703125 -41.265625 C 9.296875 -40.328125 8.59375 -38.738281 8.59375 -36.5 Z M 8.59375 -32.65625 "/></g></g></g><g fill="#000000" fill-opacity="1"><g transform="translate(189.159497, 59.999989)"><g><path d="M 2.078125 1.078125 L 19.140625 -47.171875 L 26.140625 -47.171875 L 43.328125 1.078125 L 37.890625 1.078125 L 32.65625 -14.40625 L 12.75 -14.40625 L 7.515625 1.078125 Z M 14.203125 -18.5625 L 31.203125 -18.5625 L 22.734375 -43.703125 Z M 14.203125 -18.5625 "/></g></g></g><g fill="#000000" fill-opacity="1"><g transform="translate(234.6918, 59.999989)"><g><path d="M 10.796875 1.140625 L 5.75 1.140625 L 5.75 -47.109375 L 10.796875 -47.109375 Z M 11.4375 -23.5625 L 30 -47.109375 L 36.5 -47.109375 L 17.4375 -23.625 L 38.78125 1.140625 L 32.34375 1.140625 Z M 11.4375 -23.5625 "/></g></g></g><g fill="#000000" fill-opacity="1"><g transform="translate(276.877068, 59.999989)"><g><path d="M 10.796875 1.140625 L 5.75 1.140625 L 5.75 -47.109375 L 10.796875 -47.109375 Z M 11.4375 -23.5625 L 30 -47.109375 L 36.5 -47.109375 L 17.4375 -23.625 L 38.78125 1.140625 L 32.34375 1.140625 Z M 11.4375 -23.5625 "/></g></g></g><g fill="#000000" fill-opacity="1"><g transform="translate(319.062317, 59.999989)"><g><path d="M 2.078125 1.078125 L 19.140625 -47.171875 L 26.140625 -47.171875 L 43.328125 1.078125 L 37.890625 1.078125 L 32.65625 -14.40625 L 12.75 -14.40625 L 7.515625 1.078125 Z M 14.203125 -18.5625 L 31.203125 -18.5625 L 22.734375 -43.703125 Z M 14.203125 -18.5625 "/></g></g></g></svg>